<?xml version="1.0" standalone="no"?>
<!DOCTYPE svg PUBLIC "-//W3C//DTD SVG 20010904//EN"
 "http://www.w3.org/TR/2001/REC-SVG-20010904/DTD/svg10.dtd">
<svg version="1.0" xmlns="http://www.w3.org/2000/svg"
 width="1024.000000pt" height="1024.000000pt" viewBox="0 0 1024.000000 1024.000000"
 preserveAspectRatio="xMidYMid meet">

<g transform="translate(0.000000,1024.000000) scale(0.100000,-0.100000)"
fill="#000000" stroke="none">
<path d="M1960 9534 c-162 -35 -305 -147 -380 -299 -32 -63 -66 -205 -56 -231
5 -12 27 -14 138 -12 l132 3 11 50 c6 28 19 64 27 80 21 38 83 97 128 121 34
18 143 19 3575 19 l3540 0 41 -22 c50 -27 99 -76 127 -128 l22 -40 3 -2560 2
-2560 -30 -62 c-44 -88 -106 -134 -205 -152 l-40 -7 -3 -138 -3 -139 61 6 c86
9 175 42 252 94 106 70 174 161 220 293 l23 65 0 2585 0 2585 -22 70 c-60 192
-222 339 -418 380 -103 22 -7045 21 -7145 -1z"/>
<path d="M1130 8704 c-162 -35 -305 -147 -380 -299 -63 -127 -60 45 -60 -2731
0 -1526 4 -2551 9 -2580 43 -224 207 -398 425 -449 40 -10 118 -15 229 -15
l167 0 0 -802 c1 -877 3 -911 57 -1017 76 -150 229 -155 392 -16 30 26 495
448 1034 938 l979 892 2146 5 2147 5 65 23 c83 30 188 100 240 160 22 26 56
79 75 117 70 140 66 -58 63 2772 l-3 2558 -22 66 c-57 166 -196 305 -362 362
l-66 22 -3535 2 c-3011 1 -3545 -1 -3600 -13z m7155 -291 c47 -25 105 -84 131
-133 18 -34 19 -119 19 -2605 l0 -2570 -29 -53 c-17 -30 -47 -67 -67 -83 -80
-63 88 -59 -2288 -59 l-2166 0 -1040 -947 -1040 -946 -3 947 -2 946 -308 1
c-208 0 -317 4 -339 12 -67 25 -120 73 -152 139 l-31 63 2 2560 c3 2474 4
2561 22 2595 36 69 107 130 176 151 14 4 1611 7 3550 6 l3525 -2 40 -22z"/>
<path d="M2727 6356 c-51 -19 -75 -42 -88 -87 -23 -76 23 -161 94 -174 18 -3
917 -4 1999 -3 l1968 3 36 36 c65 66 53 168 -26 214 -35 20 -44 20 -1990 22
-1631 2 -1961 0 -1993 -11z"/>
<path d="M2701 5792 c-88 -47 -93 -181 -9 -232 33 -20 45 -20 2013 -20 1968 0
1980 0 2013 20 84 51 79 185 -9 232 -32 17 -115 18 -2004 18 -1889 0 -1972 -1
-2004 -18z"/>
<path d="M2710 5242 c-46 -23 -80 -75 -80 -122 0 -47 34 -99 80 -122 33 -17
149 -18 1995 -18 1846 0 1962 1 1995 18 104 52 104 192 0 244 -33 17 -149 18
-1995 18 -1846 0 -1962 -1 -1995 -18z"/>
</g>
</svg>
