<?xml version="1.0" standalone="no"?>
<!DOCTYPE svg PUBLIC "-//W3C//DTD SVG 20010904//EN"
 "http://www.w3.org/TR/2001/REC-SVG-20010904/DTD/svg10.dtd">
<svg version="1.0" xmlns="http://www.w3.org/2000/svg"
 width="920.000000pt" height="920.000000pt" viewBox="0 0 920.000000 920.000000"
 preserveAspectRatio="xMidYMid meet">

<g transform="translate(0.000000,920.000000) scale(0.100000,-0.100000)"
fill="#000000" stroke="none">
<path d="M4340 8614 c-19 -2 -87 -9 -150 -15 -785 -73 -1581 -430 -2165 -969
-373 -344 -580 -571 -757 -830 -214 -312 -399 -743 -507 -1180 -92 -372 -106
-835 -40 -1255 10 -66 30 -195 44 -287 37 -241 79 -446 120 -578 36 -117 48
-180 15 -80 -10 30 -23 54 -28 53 -5 -1 -8 11 -7 28 2 24 -1 29 -14 24 -13 -5
-14 -4 -3 6 21 22 13 33 -10 13 -23 -19 -23 -19 -6 2 27 31 22 41 -7 14 -13
-12 -22 -26 -20 -31 3 -4 1 -10 -4 -13 -13 -8 -8 19 7 36 6 8 10 18 7 21 -3 4
-2 5 2 2 3 -3 12 0 19 6 11 9 10 16 -7 37 -13 18 -18 34 -14 52 5 24 5 24 -10
6 -8 -10 -12 -22 -10 -27 3 -4 1 -10 -4 -13 -5 -3 -7 -15 -4 -26 3 -11 9 -17
14 -15 4 3 5 13 2 23 -7 18 -5 17 17 -12 8 -11 10 -17 4 -13 -7 4 -17 0 -24
-8 -7 -8 -9 -15 -5 -15 5 0 1 -8 -7 -17 -9 -10 -14 -26 -13 -36 2 -9 0 -15 -5
-12 -10 6 -8 25 5 45 12 19 13 30 3 57 -4 13 -3 25 3 28 5 4 7 11 3 16 -3 6
-12 3 -19 -8 -7 -10 -10 -22 -7 -28 12 -18 9 -50 -6 -67 -8 -10 -11 -18 -7
-18 4 0 1 -8 -8 -18 -10 -10 -14 -22 -10 -27 5 -4 2 -5 -5 -1 -11 6 -10 12 4
27 9 10 13 19 9 19 -4 0 -1 8 7 18 16 19 18 62 3 62 -5 0 -9 -11 -10 -23 0
-13 -6 -31 -12 -39 -7 -8 -9 -19 -5 -23 4 -5 1 -5 -6 -1 -11 7 -10 11 2 25 13
14 13 20 3 31 -9 10 -9 11 0 6 13 -7 18 6 6 17 -12 12 -34 -15 -23 -28 7 -9 6
-16 -5 -25 -12 -10 -13 -16 -3 -29 12 -14 11 -14 -5 -2 -16 13 -16 15 -2 31
11 12 13 20 5 25 -7 4 -4 15 10 32 19 24 19 50 -1 37 -5 -3 -7 -9 -4 -13 2 -5
-4 -16 -15 -26 -14 -13 -17 -22 -9 -31 7 -9 6 -14 -2 -20 -7 -4 -9 -3 -6 3 8
13 -17 36 -27 25 -4 -4 -6 -2 -4 3 2 6 -2 11 -7 13 -6 1 -10 -2 -10 -7 0 -5
-3 -12 -7 -16 -3 -4 -5 1 -3 12 2 10 4 18 5 18 7 0 5 57 -2 61 -4 3 -8 2 -9
-3 -6 -47 -13 -88 -19 -103 -1 -3 -2 -8 -2 -12 1 -3 -6 -12 -16 -20 -15 -12
-16 -11 -3 5 7 9 10 17 6 17 -4 0 -2 6 4 13 8 11 6 18 -9 32 -11 10 -17 21
-15 26 3 4 1 10 -4 13 -20 13 -20 -13 -1 -37 13 -16 16 -28 10 -32 -6 -4 -8
-10 -5 -15 3 -5 1 -11 -5 -15 -6 -4 -7 -11 -4 -17 4 -7 2 -8 -5 -4 -8 6 -9 12
-2 20 7 9 7 16 -2 25 -6 7 -7 11 -2 9 6 -2 10 2 10 7 0 6 -4 9 -10 7 -5 -2 -7
-1 -3 3 9 10 -32 86 -43 79 -5 -3 -9 -10 -9 -15 0 -6 5 -7 12 -3 6 4 8 3 5 -3
-4 -6 -1 -16 7 -22 7 -6 12 -22 12 -35 -2 -36 -13 -41 -12 -6 1 16 -3 30 -9
30 -5 0 -10 -13 -10 -29 0 -16 -3 -32 -7 -36 -3 -4 -5 1 -4 12 2 10 -1 23 -6
30 -5 6 -5 14 0 17 5 3 8 22 6 43 -1 21 2 46 7 55 5 10 5 19 0 22 -9 6 -27
-50 -23 -67 2 -5 -2 -6 -7 -2 -6 3 -8 12 -4 20 3 9 1 21 -5 28 -5 6 -8 22 -6
35 2 13 0 21 -5 17 -6 -3 -8 6 -5 21 3 16 1 23 -6 19 -5 -3 -10 0 -10 7 0 7
-3 24 -7 37 -4 17 -3 22 6 17 6 -4 9 -11 6 -15 -2 -5 2 -17 10 -27 15 -18 15
-18 9 1 -4 13 2 9 15 -10 12 -17 21 -24 21 -15 0 13 2 13 11 0 9 -12 10 -11 5
5 -6 20 -6 20 9 1 8 -11 15 -15 15 -9 0 7 -4 15 -10 18 -5 3 -10 12 -10 18 0
7 9 -1 20 -18 11 -16 20 -25 20 -19 0 5 -3 14 -8 20 -4 5 1 1 10 -9 13 -14 18
-15 18 -6 0 11 2 11 10 -1 9 -13 10 -13 10 0 0 13 1 13 10 0 9 -13 10 -13 10
0 0 13 1 13 10 0 9 -13 10 -13 10 0 0 13 1 13 10 0 9 -13 10 -13 10 0 0 13 1
13 10 0 9 -13 10 -13 10 0 0 13 1 13 10 0 9 -13 10 -13 10 0 0 13 1 13 10 0 9
-13 10 -13 10 0 0 13 1 13 10 0 9 -13 10 -13 10 0 0 13 1 13 10 0 9 -13 10
-13 10 0 0 13 1 13 10 0 9 -13 10 -13 10 0 0 13 1 13 10 0 8 -12 10 -12 10 -1
0 18 40 -32 40 -51 0 -7 5 -20 10 -28 7 -11 8 -5 3 20 -3 19 -9 37 -12 40 -4
3 -6 20 -6 39 1 19 -4 35 -12 38 -10 4 -11 9 -2 19 10 13 6 18 -13 15 -10 -1
-10 13 -1 23 14 13 11 36 -6 49 -14 10 -20 29 -11 40 7 9 7 38 -1 43 -5 3 -7
10 -3 15 3 5 0 8 -7 7 -8 -2 -13 6 -14 19 0 36 -11 35 -11 -2 0 -18 3 -32 7
-29 9 5 25 -17 25 -33 -1 -7 -5 -12 -11 -10 -5 1 -9 9 -7 17 2 12 1 12 -6 1
-8 -11 -11 -11 -15 0 -5 11 -6 10 -4 -1 1 -8 -3 -15 -8 -15 -5 0 -9 5 -7 12 4
16 -15 26 -24 12 -4 -8 -3 -9 4 -5 7 4 12 3 12 -3 0 -17 -17 -21 -29 -7 -8 10
-9 16 -2 21 6 3 16 16 21 28 10 21 10 21 -6 -1 -15 -20 -18 -21 -34 -7 -14 13
-17 13 -17 1 0 -8 5 -14 10 -13 5 1 11 -13 13 -31 2 -27 0 -31 -11 -22 -8 6
-11 19 -8 28 4 15 3 15 -6 2 -12 -16 -13 -14 -15 29 0 16 -4 32 -7 35 -3 4 -5
-12 -4 -34 1 -22 -2 -43 -7 -46 -9 -6 -11 7 -10 46 1 18 -1 21 -7 11 -11 -18
-6 -49 12 -70 11 -13 11 -21 2 -39 -7 -13 -15 -20 -18 -15 -3 5 -2 15 3 23 5
9 2 23 -9 39 -18 28 -20 39 -8 58 4 6 2 15 -4 19 -7 4 -9 3 -5 -4 3 -6 2 -13
-3 -16 -5 -4 -8 -14 -6 -24 1 -9 -2 -23 -7 -29 -11 -14 -28 -8 -28 8 0 6 4 8
8 5 5 -3 9 1 9 9 0 8 -5 13 -11 12 -6 -1 -10 7 -8 18 l3 20 -14 -20 c-8 -11
-15 -24 -17 -30 -1 -5 -8 -17 -15 -25 -7 -8 -13 -17 -13 -20 3 -16 -15 -49
-23 -44 -6 4 -6 11 2 20 6 8 9 17 5 21 -3 3 1 15 11 25 9 10 12 18 8 18 -5 0
2 12 16 28 24 27 23 27 -8 -2 -18 -16 -30 -33 -27 -37 2 -4 0 -10 -5 -13 -25
-16 -18 17 11 50 36 40 43 61 22 61 -10 0 -11 -4 -4 -12 12 -14 -12 -40 -24
-27 -4 4 -6 2 -4 -3 3 -12 -27 -57 -34 -50 -2 3 -5 -2 -5 -10 0 -8 3 -13 5
-10 7 7 32 -15 32 -27 0 -6 -6 -5 -15 2 -12 10 -14 8 -10 -7 2 -11 0 -25 -4
-32 -5 -7 -14 29 -21 80 -10 65 -10 96 -3 109 8 12 8 17 -1 17 -19 0 -18 -60
3 -186 158 -909 577 -1713 1223 -2347 671 -657 1524 -1068 2453 -1180 202 -24
634 -29 845 -10 1163 104 2207 672 2944 1601 324 408 598 947 742 1458 64 228
127 547 137 702 2 33 2 45 0 27 -2 -18 -7 -31 -11 -28 -4 2 -8 -17 -8 -42 -2
-75 -3 -84 -14 -77 -6 4 -8 10 -6 14 3 4 -2 8 -10 8 -11 0 -11 -5 4 -21 14
-15 17 -28 11 -46 -7 -26 -10 -24 -13 8 -1 19 -36 73 -36 55 0 -6 6 -16 14
-22 14 -12 16 -35 3 -47 -6 -7 -11 9 -9 28 2 13 -26 29 -33 18 -4 -6 -1 -9 5
-8 7 2 14 -5 15 -15 2 -11 6 -21 9 -24 3 -3 1 -15 -5 -25 -8 -14 -8 -23 0 -31
6 -6 11 -16 11 -21 -1 -6 -10 0 -20 13 -13 15 -17 28 -11 35 9 12 7 44 -4 54
-4 4 -5 0 -3 -8 1 -9 -1 -15 -7 -15 -5 0 -9 8 -9 17 1 9 -4 16 -10 15 -6 -1
-10 8 -10 20 1 12 -3 21 -9 20 -6 -1 -11 3 -12 10 0 6 -3 14 -7 18 -12 12 -3
-22 10 -38 10 -11 9 -17 -2 -26 -8 -7 -12 -20 -9 -29 6 -15 5 -15 -10 -3 -16
13 -16 15 -2 31 14 16 14 18 -2 31 -15 11 -16 11 -6 -1 10 -11 10 -17 -1 -29
-14 -15 -16 -20 -16 -38 0 -5 -5 -1 -10 7 -6 10 -4 20 5 30 10 11 11 20 4 30
-9 13 -10 12 -6 -2 3 -9 -1 -22 -9 -28 -8 -7 -14 -9 -14 -5 0 5 -9 0 -20 -10
-29 -27 -24 -8 10 34 19 25 24 38 15 38 -8 0 -13 -3 -12 -6 1 -3 -5 -16 -12
-29 -11 -20 -15 -21 -29 -10 -15 11 -15 11 -5 -3 7 -9 10 -19 6 -22 -3 -4 1
-15 10 -25 10 -10 14 -21 11 -25 -4 -3 -15 4 -26 16 -18 20 -18 19 1 -9 11
-17 17 -34 14 -38 -4 -4 -13 4 -20 16 l-14 23 7 -24 c5 -18 3 -22 -7 -16 -11
6 -12 5 -1 -6 15 -16 16 -33 0 -23 -6 4 -8 3 -4 -4 3 -6 2 -13 -3 -16 -5 -4
-8 -18 -5 -32 3 -14 1 -23 -4 -20 -4 2 -8 -5 -9 -17 -1 -12 -8 -47 -17 -77
-20 -68 -20 -77 -1 -77 17 0 28 24 15 32 -6 4 -10 1 -10 -6 0 -7 -3 -10 -6 -7
-3 3 1 21 9 39 7 19 12 41 10 49 -4 13 -3 13 6 0 10 -13 11 -13 11 0 0 13 1
13 10 0 9 -13 10 -13 10 0 0 13 1 13 10 0 9 -13 10 -13 10 0 0 13 1 13 10 0 9
-13 10 -13 10 0 0 13 1 13 10 0 9 -13 10 -13 10 0 0 13 1 13 10 0 9 -13 10
-13 10 0 0 13 1 13 10 0 9 -13 10 -13 10 0 0 13 1 13 10 0 9 -13 10 -13 10 0
0 13 1 13 10 0 9 -13 10 -13 10 0 0 13 1 13 10 0 9 -13 10 -13 10 0 0 12 2 13
9 1 7 -11 10 -9 16 9 6 18 9 20 16 9 7 -10 8 -5 5 14 -3 15 -1 25 3 23 5 -3 6
6 3 21 -3 17 -1 24 6 19 6 -4 9 -14 6 -24 -5 -13 -4 -14 4 -3 5 7 8 27 5 43
-3 18 -1 28 5 24 5 -3 8 -20 5 -38 -2 -18 -5 -43 -5 -55 -1 -12 -6 -19 -11
-16 -5 3 -6 -4 -3 -15 4 -11 2 -23 -4 -27 -5 -3 -10 -11 -10 -16 0 -6 5 -7 12
-3 7 4 8 3 4 -5 -4 -6 -11 -9 -16 -6 -5 3 -7 -8 -5 -25 2 -17 0 -28 -5 -25 -5
3 -6 13 -3 23 5 14 4 15 -8 4 -11 -10 -11 -16 -1 -33 11 -17 10 -24 -7 -46
-16 -20 -18 -30 -10 -47 9 -19 9 -19 -8 2 -17 21 -21 22 -32 9 -7 -9 -8 -18
-2 -21 11 -7 9 -30 -6 -47 -6 -8 -11 -18 -11 -22 0 -5 -3 -11 -5 -14 -10 -9
-1 25 9 38 12 16 12 29 1 47 -5 6 -5 12 0 12 4 0 1 5 -7 11 -13 8 -13 9 2 7 9
-2 16 2 15 7 -1 6 -6 9 -12 7 -5 -2 -7 0 -3 3 4 4 3 15 -2 25 -6 12 -3 30 12
59 29 60 16 61 -15 1 -14 -27 -22 -52 -17 -55 9 -6 8 -24 -3 -42 -4 -6 -2 -15
3 -18 8 -5 5 -14 -7 -27 -10 -11 -16 -22 -15 -25 2 -3 1 -7 -1 -10 -11 -10 -1
26 11 39 6 8 9 18 5 21 -8 9 -38 -33 -38 -55 0 -9 -3 -19 -6 -22 -17 -17 0 44
19 72 13 18 20 32 16 32 -3 0 -1 6 5 14 7 9 8 17 3 20 -10 6 -27 -21 -24 -36
1 -5 -3 -7 -9 -5 -6 1 -14 -4 -17 -12 -3 -9 0 -11 9 -6 8 5 5 -1 -5 -13 -21
-24 -32 -29 -19 -9 12 18 10 40 -5 59 -11 14 -11 20 2 40 9 14 13 27 10 31 -4
4 -15 -8 -24 -26 -17 -29 -17 -33 -2 -50 14 -15 14 -18 2 -15 -9 2 -14 -3 -12
-12 2 -8 0 -12 -4 -7 -4 4 -21 -5 -38 -20 -17 -16 -25 -21 -18 -12 6 9 9 19 5
23 -4 3 -8 14 -9 22 -1 9 1 13 4 9 4 -4 7 -11 7 -16 0 -5 3 -9 8 -9 4 0 10 0
13 0 4 0 -1 12 -11 26 -9 15 -13 24 -7 20 5 -3 12 1 16 9 3 8 1 17 -4 20 -6 4
-10 0 -10 -7 0 -10 -2 -10 -8 0 -6 8 -13 -6 -20 -39 -7 -28 -9 -56 -5 -61 3
-7 1 -8 -5 -4 -16 10 -15 -26 1 -44 10 -12 9 -12 -5 -2 -14 11 -17 8 -23 -25
-3 -21 -11 -45 -16 -53 -8 -12 -9 -11 -5 5 133 511 160 703 161 1160 0 204 -5
358 -13 425 -39 321 -100 602 -187 865 -24 72 -60 184 -80 250 -159 511 -450
982 -864 1395 -471 470 -1037 794 -1683 964 -323 85 -561 116 -933 121 -154 2
-296 1 -315 -1z m19 -2994 c151 -157 327 -339 391 -406 65 -66 119 -125 121
-131 2 -6 79 -88 171 -183 109 -113 172 -170 180 -166 7 4 40 22 73 41 33 18
83 45 110 60 28 14 76 41 107 58 31 18 105 59 163 92 59 33 128 72 154 87 25
15 68 38 95 52 27 13 52 28 55 33 3 4 26 18 51 31 25 12 72 38 105 56 33 19
83 46 110 61 68 35 204 112 425 237 36 21 83 47 105 59 22 11 67 36 100 54 33
19 80 44 105 57 25 13 47 26 50 30 4 4 26 18 50 31 93 48 156 83 185 102 l30
19 -35 -40 c-19 -21 -73 -78 -120 -126 -46 -49 -82 -88 -78 -88 4 0 -36 -41
-88 -92 -52 -50 -94 -96 -94 -101 0 -5 -40 -48 -90 -96 -49 -48 -90 -91 -90
-96 0 -6 -38 -48 -85 -94 -47 -46 -85 -85 -85 -88 0 -9 -692 -733 -701 -733
-5 0 -9 -6 -9 -13 0 -12 -84 -97 -96 -97 -4 0 7 13 24 29 16 16 27 33 24 37
-4 4 -2 4 4 1 29 -17 42 49 16 75 -10 10 -12 8 -9 -7 1 -11 6 -25 10 -32 4 -6
2 -15 -5 -19 -7 -4 -10 -4 -6 1 4 4 3 14 -3 22 -6 7 -8 13 -5 13 4 0 2 9 -4
21 -9 16 -14 18 -26 9 -7 -7 -11 -17 -8 -22 4 -6 10 -5 16 3 8 11 9 10 5 -2
-3 -9 -1 -21 5 -27 6 -6 6 -12 -3 -17 -7 -5 -10 -4 -6 2 7 12 -17 36 -39 39
-15 2 -37 -29 -28 -39 3 -3 1 -8 -5 -11 -6 -4 -8 2 -5 14 2 11 6 29 8 40 3 11
1 22 -5 25 -9 6 -13 -7 -10 -35 2 -13 0 -13 -8 -1 -5 8 -6 21 -3 30 5 14 4 14
-11 2 -13 -10 -14 -17 -7 -26 8 -9 8 -15 0 -20 -6 -4 -9 -3 -8 2 2 4 -1 9 -7
10 -5 1 -9 -6 -9 -17 1 -11 -3 -17 -7 -14 -5 3 -7 9 -4 14 3 5 1 12 -5 15 -6
4 -8 16 -5 28 6 21 6 21 -9 3 -12 -14 -13 -23 -5 -33 6 -7 8 -13 4 -13 -4 0
-1 -8 6 -17 11 -16 11 -16 -1 -5 -8 7 -15 18 -15 25 -1 7 -7 11 -14 9 -7 -1
-10 2 -7 7 3 5 -2 15 -11 22 -14 12 -15 11 -9 -11 6 -24 6 -24 -9 3 -16 28
-31 37 -22 13 3 -8 -1 -20 -8 -26 -8 -7 -12 -17 -8 -24 3 -6 -2 -4 -11 5 -10
9 -19 25 -21 35 -2 10 -4 20 -4 22 -1 2 -6 0 -11 -3 -7 -4 -6 -14 1 -28 9 -20
9 -20 -4 -5 -8 10 -17 15 -21 11 -3 -3 1 -14 10 -24 12 -14 13 -18 2 -25 -7
-4 -10 -4 -6 1 10 11 -11 37 -23 29 -5 -3 -8 -2 -7 3 2 4 -1 8 -7 8 -5 0 -9
-4 -7 -8 1 -5 -2 -6 -8 -2 -8 5 -8 11 0 20 6 7 7 16 2 19 -10 6 -37 -43 -33
-59 2 -5 -1 -6 -6 -2 -4 5 -8 13 -8 18 0 5 -4 8 -10 7 -5 -2 -9 -6 -8 -9 1 -4
-8 -15 -20 -25 l-22 -19 18 22 c13 14 15 23 7 28 -6 4 -8 16 -4 28 6 19 5 20
-9 8 -9 -7 -15 -17 -12 -21 3 -4 -2 -13 -9 -19 -11 -9 -14 -9 -12 1 1 7 5 18
9 25 4 6 3 14 -1 17 -12 7 -30 -34 -26 -57 1 -11 -1 -16 -4 -12 -4 4 -8 11 -8
16 -1 5 -2 12 -3 16 0 3 -13 -4 -28 -18 -16 -13 -22 -17 -16 -10 9 11 10 18 1
28 -9 11 -17 9 -42 -14 -28 -26 -29 -26 -8 -2 28 32 18 46 -12 15 -11 -12 -16
-15 -9 -6 16 20 20 34 11 38 -5 1 -7 0 -5 -2 1 -2 -7 -13 -17 -25 l-19 -21
-23 21 c-13 12 -20 28 -17 37 4 10 2 13 -5 8 -17 -10 -15 -26 5 -48 18 -20 27
-52 12 -42 -5 3 -7 9 -4 13 2 5 -4 16 -14 25 -15 14 -21 15 -27 4 -5 -7 -9
-16 -9 -20 0 -3 -2 -8 -5 -10 -3 -1 -4 -1 -3 1 2 2 -2 10 -9 18 -6 8 -7 13 -2
11 5 -2 9 2 9 7 0 6 -4 9 -8 7 -5 -1 -6 2 -3 7 4 5 2 12 -4 16 -5 3 -11 1 -11
-4 -1 -6 -2 -17 -3 -23 -1 -7 2 -18 6 -25 6 -7 4 -14 -3 -19 -7 -4 -9 -3 -5 4
3 6 1 14 -5 17 -6 4 -19 21 -30 39 -11 18 -19 24 -19 15 0 -9 9 -28 20 -42 16
-20 17 -27 8 -33 -7 -4 -10 -4 -6 1 4 4 3 14 -4 22 -9 11 -15 10 -33 -7 -15
-14 -25 -18 -30 -11 -3 7 -3 10 2 9 4 -2 8 1 8 7 0 5 -3 9 -7 8 -5 -2 -7 0 -5
5 1 4 -3 7 -8 7 -6 0 -9 -8 -9 -17 1 -10 -2 -15 -6 -13 -9 6 -8 25 3 42 4 6 3
14 -2 17 -8 5 -19 -15 -27 -46 -1 -5 -3 -11 -4 -15 -1 -5 -2 -11 -1 -15 2 -12
-5 -9 -19 8 -8 8 -9 14 -4 12 5 -2 9 2 9 7 0 6 -4 9 -8 7 -5 -1 -6 2 -2 8 3 5
0 10 -7 11 -10 0 -10 2 0 6 6 2 9 9 6 14 -3 6 -11 6 -20 -2 -7 -6 -11 -16 -7
-23 10 -15 13 -40 5 -31 -4 4 -7 11 -7 16 0 12 -20 12 -21 -1 -1 -5 -3 -13 -4
-17 -1 -5 -2 -12 -1 -16 1 -5 -3 -6 -9 -2 -8 5 -8 11 0 20 8 10 8 15 0 20 -6
4 -8 16 -4 28 6 19 5 20 -9 8 -9 -7 -15 -17 -12 -21 3 -4 -2 -13 -9 -19 -11
-9 -14 -9 -12 1 1 7 5 18 9 25 4 6 3 14 -1 17 -12 7 -30 -34 -26 -57 1 -11 -1
-16 -4 -12 -4 4 -7 11 -7 16 0 5 -4 9 -10 9 -5 0 -10 -4 -10 -9 0 -5 -3 -12
-7 -16 -8 -9 -5 16 5 32 4 6 3 14 -2 18 -6 3 -7 13 -4 22 5 11 3 14 -6 9 -7
-5 -11 -17 -8 -27 3 -11 2 -17 -3 -14 -9 6 -32 -20 -24 -27 3 -3 -1 -9 -8 -14
-7 -4 -10 -4 -6 1 10 11 -11 37 -23 29 -5 -3 -8 -2 -7 3 2 4 -2 8 -7 8 -6 0
-9 -4 -7 -10 2 -5 -6 -1 -17 9 -24 22 -28 11 -5 -15 12 -14 13 -18 2 -25 -7
-4 -10 -4 -6 1 4 4 3 14 -4 22 -9 11 -15 10 -37 -9 -25 -23 -25 -23 2 10 25
31 29 60 6 46 -5 -3 -7 -9 -5 -13 3 -4 -9 -21 -27 -37 -19 -18 -24 -20 -12 -6
22 26 27 49 14 58 -5 3 -10 0 -10 -5 -1 -6 -2 -15 -3 -20 0 -6 -6 -15 -13 -22
-9 -9 -11 -8 -9 4 1 9 5 20 9 23 4 4 7 12 7 18 -1 6 -9 0 -20 -13 -11 -12 -18
-27 -15 -31 3 -5 1 -11 -5 -15 -6 -4 -7 -11 -4 -17 4 -7 2 -8 -5 -4 -9 6 -9
11 0 22 6 8 8 14 5 14 -4 0 -2 9 3 19 8 14 7 22 -6 32 -14 12 -15 11 -9 -8 4
-12 2 -24 -4 -28 -6 -3 -8 -10 -5 -15 3 -4 -2 -13 -9 -19 -10 -9 -16 -9 -21
-1 -4 6 -3 9 2 8 4 -2 8 2 8 7 0 6 -3 9 -7 8 -4 -2 -4 5 -1 14 4 11 3 14 -5 9
-8 -5 -10 -1 -5 11 6 16 5 16 -10 4 -9 -7 -14 -18 -10 -25 10 -15 13 -40 5
-31 -4 4 -7 11 -7 16 0 12 -20 12 -21 -1 -1 -5 -3 -13 -4 -17 -1 -5 -2 -12 -1
-16 1 -5 -3 -6 -9 -2 -8 5 -8 11 0 20 8 10 8 15 0 20 -6 4 -8 16 -4 28 6 19 5
20 -9 8 -9 -7 -15 -17 -12 -21 3 -4 -2 -13 -9 -19 -11 -9 -14 -9 -12 1 1 7 5
18 9 25 4 6 3 14 -1 17 -12 7 -30 -34 -26 -57 1 -11 -1 -16 -4 -12 -4 4 -7 12
-7 18 -1 7 -6 11 -12 10 -7 -2 -10 6 -8 17 2 11 0 22 -6 25 -9 6 -13 -8 -9
-35 3 -21 41 -61 52 -54 5 3 8 2 7 -3 -4 -22 2 -34 14 -27 6 4 9 3 4 -1 -4 -5
1 -18 10 -29 29 -35 -27 22 -182 187 -95 100 -155 157 -168 157 -21 0 -98 -36
-212 -100 -38 -22 -86 -47 -105 -56 -19 -9 -46 -24 -60 -34 -14 -10 -34 -20
-45 -22 -11 -1 -23 -10 -27 -18 -5 -8 -5 1 -2 20 4 26 3 31 -5 20 -6 -8 -11
-22 -11 -30 0 -15 -60 -60 -79 -60 -5 0 -11 -6 -14 -12 -3 -7 -4 -3 -4 9 1 12
5 19 10 16 10 -6 40 34 44 61 3 16 1 17 -12 6 -8 -7 -13 -16 -10 -20 3 -4 -2
-13 -9 -19 -11 -9 -14 -9 -12 1 1 7 5 18 9 25 4 6 3 14 -2 17 -9 6 -27 -30
-23 -45 0 -4 -9 -15 -21 -25 -22 -19 -22 -19 -5 2 14 15 15 23 6 32 -9 9 -16
8 -29 -4 -17 -15 -18 -14 -14 16 3 25 2 30 -9 21 -7 -6 -12 -26 -11 -45 1 -20
-1 -33 -6 -31 -4 3 -5 17 -3 32 4 22 3 24 -10 14 -17 -15 -29 -1 -20 26 5 17
5 17 -10 -1 -11 -13 -13 -23 -6 -31 7 -9 6 -16 -4 -24 -10 -8 -16 -9 -21 -1
-4 6 -3 9 2 8 4 -2 8 2 8 7 0 6 -3 9 -8 7 -4 -1 -6 1 -5 5 2 5 -1 9 -7 10 -5
1 -9 -7 -9 -18 1 -11 -1 -17 -4 -14 -10 10 -11 35 -1 41 5 3 9 13 9 22 0 12
-6 8 -19 -12 -11 -17 -18 -33 -16 -37 3 -4 -3 -13 -13 -20 -14 -11 -15 -11 -5
1 9 10 10 17 1 27 -9 11 -14 11 -29 -3 -16 -15 -17 -14 -15 9 2 14 -1 31 -5
39 -7 10 -9 9 -10 -4 -2 -28 -6 -57 -9 -65 -1 -5 -2 -12 -1 -16 1 -5 -4 -5
-10 -2 -7 5 -8 10 0 18 7 7 7 14 0 23 -7 8 -7 14 1 19 5 3 10 13 10 22 0 9
-13 -2 -30 -25 -17 -23 -33 -42 -36 -42 -4 0 -1 6 5 14 7 9 8 17 2 20 -5 3
-12 0 -14 -6 -4 -9 -6 -10 -6 -1 -1 6 4 15 9 18 6 3 10 14 10 23 0 12 -6 8
-20 -13 -13 -20 -16 -33 -9 -41 7 -8 6 -15 -2 -20 -7 -4 -9 -3 -5 4 3 6 2 13
-4 17 -6 4 -7 13 -1 23 9 18 4 42 -9 42 -4 0 -6 -8 -3 -19 3 -10 0 -22 -7 -26
-8 -5 -8 -11 2 -23 10 -15 10 -15 -2 -4 -8 7 -15 17 -15 23 0 5 -4 9 -10 9 -5
0 -10 -4 -10 -9 0 -5 -3 -12 -7 -16 -8 -9 -5 16 5 32 4 6 3 14 -1 17 -11 7
-30 -33 -26 -57 1 -9 -2 -15 -7 -11 -5 3 -7 9 -4 14 3 4 -2 13 -11 20 -13 12
-14 10 -10 -15 3 -15 3 -25 0 -22 -3 3 -5 7 -3 9 1 2 -3 13 -10 26 -10 19 -15
21 -27 12 -7 -7 -12 -16 -9 -20 3 -4 -3 -14 -13 -21 -15 -13 -16 -12 -4 3 9
11 10 18 2 23 -6 4 -8 16 -4 28 6 19 5 20 -9 8 -12 -10 -14 -18 -7 -31 7 -13
6 -21 -2 -26 -7 -4 -10 -4 -6 1 4 4 3 16 -3 27 -8 15 -13 17 -25 7 -8 -6 -14
-8 -14 -4 0 4 -7 2 -15 -5 -8 -7 -12 -17 -8 -23 3 -5 1 -7 -4 -4 -6 4 -16 0
-23 -8 -7 -8 -16 -15 -21 -15 -5 0 28 39 74 88 325 341 447 471 447 478 0 4
38 46 84 93 133 137 446 469 446 474 0 2 40 44 90 93 49 49 90 93 90 97 0 14
264 288 275 285 6 -2 134 -131 284 -288z m-1692 -1285 c0 -8 -4 -12 -9 -9 -5
3 -6 10 -3 15 9 13 12 11 12 -6z m2849 0 c-1 -8 -5 -17 -8 -21 -5 -4 -4 16 1
34 3 9 9 -1 7 -13z m-2872 -11 c3 -8 2 -12 -4 -9 -6 3 -10 10 -10 16 0 14 7
11 14 -7z m326 12 c0 -2 -8 -10 -17 -17 -16 -13 -17 -12 -4 4 13 16 21 21 21
13z m80 0 c0 -2 -8 -10 -17 -17 -16 -13 -17 -12 -4 4 13 16 21 21 21 13z
m1965 -5 c3 -5 2 -12 -3 -15 -5 -3 -9 1 -9 9 0 17 3 19 12 6z m136 -4 c-6 -8
-7 -18 -3 -22 4 -5 1 -5 -6 -1 -10 6 -10 11 -1 22 6 8 14 14 16 14 3 0 0 -6
-6 -13z m214 4 c3 -5 2 -12 -3 -15 -5 -3 -9 1 -9 9 0 17 3 19 12 6z m370 0 c3
-5 2 -12 -3 -15 -5 -3 -9 1 -9 9 0 17 3 19 12 6z m-1208 -18 c0 -9 -4 -10 -14
-2 -7 6 -13 12 -13 14 0 1 6 2 13 2 8 0 14 -6 14 -14z m880 0 c0 -9 -4 -10
-14 -2 -7 6 -13 12 -13 14 0 1 6 2 13 2 8 0 14 -6 14 -14z m153 11 c0 -8 -19
-13 -24 -6 -3 5 1 9 9 9 8 0 15 -2 15 -3z m-2280 -38 c0 -7 -8 -16 -18 -18
-11 -3 -19 0 -19 7 0 7 6 11 14 8 7 -3 13 0 13 6 0 6 2 11 5 11 3 0 5 -6 5
-14z m-50 -30 c0 -3 -4 -8 -10 -11 -5 -3 -10 -1 -10 4 0 6 5 11 10 11 6 0 10
-2 10 -4z m-52 -30 c-7 -8 -15 -12 -17 -11 -5 6 10 25 20 25 5 0 4 -6 -3 -14z
m2523 -29 c-10 -9 -11 -8 -5 6 3 10 9 15 12 12 3 -3 0 -11 -7 -18z m-21 -21
c0 -2 -8 -10 -17 -17 -16 -13 -17 -12 -4 4 13 16 21 21 21 13z m-5196 -160
c-3 -7 1 -18 9 -25 11 -9 17 -8 27 4 11 14 14 13 25 -2 9 -12 10 -24 4 -35 -6
-10 -5 -19 1 -23 5 -3 10 -11 10 -18 0 -24 -23 12 -26 40 -3 36 -2 35 -14 28
-8 -5 -8 -11 0 -20 7 -8 7 -16 2 -19 -6 -3 -13 1 -16 10 -3 9 -11 12 -18 8 -8
-5 -9 -1 -5 12 7 18 6 18 -6 2 -8 -10 -18 -14 -22 -10 -5 4 -5 2 -1 -5 3 -6 2
-14 -3 -17 -5 -3 -7 -16 -3 -29 5 -19 3 -20 -10 -9 -14 11 -18 10 -27 -5 -10
-17 -10 -17 -11 1 0 11 -3 17 -6 13 -3 -3 -3 -15 1 -28 6 -17 9 -19 16 -8 7
12 9 11 10 -1 1 -8 1 -19 0 -23 -1 -5 3 -6 8 -3 5 4 12 -2 15 -11 4 -15 5 -15
4 2 -1 46 5 57 12 20 l7 -40 2 38 c0 21 5 36 10 33 11 -7 6 -47 -9 -77 -12
-22 -13 -22 -27 -3 -8 10 -20 18 -26 16 -7 -2 -9 0 -5 4 9 9 -11 36 -21 29 -9
-5 -11 22 -5 53 4 19 8 21 19 12 11 -9 17 -5 30 19 8 17 12 31 9 31 -4 0 1 9
11 20 10 11 15 20 11 20 -4 0 -4 5 -1 10 9 14 25 2 19 -14z m8081 -4 c-9 -9
17 -32 29 -25 7 4 6 1 -2 -9 -10 -12 -9 -20 6 -39 22 -29 36 -63 22 -54 -11 7
-18 -6 -23 -40 -4 -28 -26 -65 -27 -45 0 13 -1 13 -10 0 -9 -13 -10 -13 -10 0
0 13 -1 13 -10 0 -9 -13 -10 -13 -10 0 0 13 -1 13 -10 0 -9 -13 -10 -13 -10 0
0 13 -1 13 -10 0 -9 -13 -10 -13 -10 0 0 13 -1 13 -10 0 -9 -13 -10 -13 -10 0
0 13 -1 13 -10 0 -9 -13 -10 -13 -10 0 0 13 -1 13 -10 0 -9 -13 -10 -13 -10 0
0 13 -1 13 -10 0 -9 -13 -10 -13 -10 0 0 13 -1 13 -10 0 -9 -13 -10 -13 -10 0
0 13 -1 13 -10 0 -8 -12 -10 -11 -7 5 1 11 6 25 9 31 4 5 5 19 4 30 -2 10 3
27 11 36 8 9 12 22 7 29 -4 7 -3 10 3 6 6 -4 16 0 23 8 7 8 9 15 5 15 -5 0 0
9 10 20 10 11 15 23 12 27 -4 3 -7 1 -7 -6 0 -7 -5 -9 -10 -6 -8 5 -7 12 1 22
12 13 14 13 25 -2 10 -14 8 -23 -13 -53 -14 -20 -30 -48 -36 -62 -13 -32 -16
-80 -3 -73 5 4 6 1 1 -7 -6 -10 -4 -11 6 -4 20 12 111 12 128 0 12 -9 13 -8 6
3 -5 10 -4 12 3 7 8 -4 10 -2 6 7 -3 8 0 18 7 23 9 5 10 2 6 -9 -3 -9 -2 -19
2 -22 5 -2 8 11 6 30 -1 21 2 32 8 28 6 -4 7 -1 2 7 -5 8 -4 11 2 7 5 -3 10 0
10 8 0 8 -4 12 -9 9 -4 -3 -9 3 -9 13 -1 17 -2 17 -6 0 -2 -9 -9 -15 -14 -12
-5 4 -5 14 1 25 7 13 7 21 0 25 -6 4 -7 12 -3 18 5 8 2 8 -9 0 -15 -13 -28 -8
-28 9 0 5 5 6 11 2 8 -5 8 -1 0 13 -12 24 -3 37 16 21 7 -6 11 -13 8 -16z
m-7942 -49 c-5 -12 -7 -12 -14 -2 -4 7 -5 17 -3 21 3 5 2 8 -3 7 -17 -3 -24 1
-18 12 10 15 45 -19 38 -38z m47 32 c0 4 7 2 15 -5 18 -15 20 -34 3 -23 -21
13 -40 13 -30 0 7 -11 8 -24 2 -44 -1 -5 -6 3 -10 17 -7 23 -8 23 -9 3 -1 -12
-6 -25 -11 -28 -14 -9 -5 42 10 60 7 8 8 20 4 27 -6 10 -3 9 9 -1 9 -7 17 -10
17 -6z m7879 -31 c21 -3 22 -4 12 -23 -12 -21 8 -47 25 -33 4 4 3 0 -3 -8 -6
-8 -12 -19 -13 -25 -1 -5 -9 -19 -16 -30 -14 -19 -14 -19 -10 5 2 14 9 24 15
22 7 -1 6 9 -4 29 -13 25 -14 34 -4 47 11 14 11 15 -1 5 -11 -10 -17 -8 -31
14 -15 23 -18 24 -17 7 2 -22 -31 -99 -38 -91 -3 2 1 17 8 33 14 35 18 65 7
58 -4 -2 -5 -12 -2 -21 4 -11 3 -14 -6 -9 -6 4 -11 4 -10 -1 1 -4 1 -17 0 -28
-1 -17 -3 -18 -12 -5 -8 12 -9 10 -4 -9 5 -16 4 -21 -4 -17 -7 4 -9 1 -5 -8 3
-8 1 -23 -5 -33 -6 -11 -11 -13 -12 -5 -1 6 -2 18 -3 25 -2 16 41 96 67 125
l21 23 18 -23 c9 -13 22 -24 27 -24z m-7814 5 c-3 -4 3 -13 14 -18 19 -11 22
-26 8 -48 -11 -17 1 -35 16 -26 7 4 6 0 -2 -10 -11 -14 -11 -18 0 -22 8 -3 15
-19 15 -36 1 -21 -1 -27 -7 -18 -6 11 -37 14 -126 14 -132 0 -162 11 -159 55
1 14 0 30 -3 35 -3 6 -7 19 -8 29 -2 11 -6 22 -10 25 -3 3 -3 -4 0 -16 3 -13
2 -25 -3 -28 -13 -8 -19 33 -6 44 20 17 25 16 40 -4 9 -11 16 -16 16 -11 0 4
9 -2 19 -15 l20 -24 16 39 c15 35 17 37 30 20 7 -10 11 -22 9 -26 -10 -16 7
-29 22 -17 8 6 14 8 14 4 0 -4 6 -2 14 4 8 7 13 21 11 33 -4 16 -2 18 10 8 8
-7 16 -9 17 -4 0 5 2 14 3 19 2 6 3 14 4 19 0 5 8 3 16 -4 8 -7 12 -16 10 -21z
m7925 -19 c-4 -16 -6 -31 -2 -34 3 -3 3 -6 0 -6 -3 0 -13 11 -22 25 -13 20
-14 30 -6 46 17 31 41 7 30 -31z m-117 -73 c-4 -7 -8 -18 -9 -25 -2 -8 -6 -17
-10 -20 -4 -4 -4 5 -2 21 3 15 1 30 -3 33 -5 3 -9 11 -9 17 0 7 7 3 15 -7 8
-11 15 -16 15 -10 0 5 -7 17 -14 27 -18 23 -26 4 -20 -49 3 -38 3 -38 -7 -10
-9 22 -14 25 -21 15 -12 -17 -8 -5 17 48 l20 43 18 -35 c10 -20 14 -41 10 -48z
m-8103 5 c0 -15 -2 -15 -10 -2 -13 20 -13 33 0 25 6 -3 10 -14 10 -23z m8030
-42 c0 -13 -1 -13 -10 0 -8 12 -10 12 -10 1 0 -8 -2 -12 -5 -10 -2 3 -2 15 2
28 4 17 8 19 14 9 5 -7 9 -20 9 -28z m17 -2 c-3 -8 -6 -5 -6 6 -1 11 2 17 5
13 3 -3 4 -12 1 -19z m-87 -263 c-7 -8 -9 -15 -5 -15 4 0 2 -6 -4 -13 -6 -8
-8 -16 -5 -19 3 -3 1 -9 -4 -12 -11 -7 -10 13 1 31 10 16 -8 26 -21 10 -5 -6
-8 -20 -7 -30 2 -9 0 -15 -5 -12 -5 3 -7 11 -6 19 3 21 27 47 37 40 5 -3 12 2
15 11 4 9 9 14 12 11 3 -3 -1 -12 -8 -21z m-7794 -34 c-15 -16 -27 -32 -26
-36 1 -4 -1 -9 -3 -12 -11 -10 -1 26 11 39 6 8 8 19 4 23 -4 5 -2 5 5 1 6 -3
14 -2 18 4 3 5 9 10 12 10 4 0 -6 -13 -21 -29z m19 -9 l-28 -27 24 31 c13 17
26 30 28 27 3 -2 -8 -16 -24 -31z m7881 23 c-1 -8 -8 -21 -16 -28 -10 -10 -11
-9 -4 3 5 8 9 18 10 23 3 14 4 17 8 17 2 0 3 -7 2 -15z m57 1 c3 -8 -4 -22
-16 -33 -22 -18 -22 -18 -6 2 9 11 14 26 12 33 -6 17 4 15 10 -2z m-147 -30
c0 -14 -3 -23 -7 -20 -6 3 -6 22 0 42 3 10 7 -2 7 -22z m-7929 -5 c0 -11 -5
-18 -9 -15 -4 3 -5 11 -1 19 7 21 12 19 10 -4z m164 6 c-6 -8 -7 -18 -3 -22 4
-5 1 -5 -6 -1 -10 6 -10 11 -1 22 6 8 14 14 16 14 3 0 0 -6 -6 -13z m7673 2
c-2 -4 0 -11 6 -14 7 -4 7 -11 2 -18 -5 -7 -8 -20 -7 -30 2 -9 0 -15 -5 -12
-9 6 -7 31 3 41 4 4 0 15 -8 24 -13 14 -13 17 0 17 8 0 12 -4 9 -8z m-7808
-30 c1 -5 2 -10 4 -11 5 -8 7 -39 2 -33 -4 4 -8 11 -8 16 -1 5 -2 10 -4 12 -5
7 -7 38 -2 32 4 -4 8 -11 8 -16z m159 12 c3 -5 2 -12 -3 -15 -5 -3 -9 1 -9 9
0 17 3 19 12 6z m172 -16 c0 -8 -4 -12 -9 -9 -5 3 -6 10 -3 15 9 13 12 11 12
-6z m7640 0 c0 -8 -4 -12 -9 -9 -5 3 -6 10 -3 15 9 13 12 11 12 -6z m-107 -1
c0 -8 -19 -13 -24 -6 -3 5 1 9 9 9 8 0 15 -2 15 -3z m-7560 -8 c0 -2 -8 -10
-17 -17 -16 -13 -17 -12 -4 4 13 16 21 21 21 13z m7631 -9 c-6 -8 -7 -18 -3
-22 4 -5 1 -5 -6 -1 -10 6 -10 11 -1 22 6 8 14 14 16 14 3 0 0 -6 -6 -13z
m-7834 -12 c0 -8 -4 -12 -9 -9 -5 3 -6 10 -3 15 9 13 12 11 12 -6z m138 6 c3
-5 2 -12 -3 -15 -5 -3 -9 1 -9 9 0 17 3 19 12 6z m7626 -4 c-6 -8 -7 -18 -3
-22 4 -5 1 -5 -6 -1 -10 6 -10 11 -1 22 6 8 14 14 16 14 3 0 0 -6 -6 -13z
m-146 -117 c-9 -28 -19 -50 -21 -48 -2 2 4 27 13 56 9 28 19 50 21 47 2 -2 -4
-27 -13 -55z m-34 -87 c-12 -20 -14 -14 -5 12 4 9 9 14 11 11 3 -2 0 -13 -6
-23z m-7221 -58 c0 -5 -5 -3 -10 5 -5 8 -10 20 -10 25 0 6 5 3 10 -5 5 -8 10
-19 10 -25z m24 -61 c3 -8 2 -12 -4 -9 -6 3 -10 10 -10 16 0 14 7 11 14 -7z
m7087 -157 c-10 -9 -11 -8 -5 6 3 10 9 15 12 12 3 -3 0 -11 -7 -18z"/>
<path d="M4135 4521 c-3 -5 -2 -12 3 -15 5 -3 9 1 9 9 0 17 -3 19 -12 6z"/>
<path d="M5305 4521 c-3 -5 -2 -12 3 -15 5 -3 9 1 9 9 0 17 -3 19 -12 6z"/>
<path d="M2859 4515 c-1 -3 -2 -11 -3 -17 -1 -7 -7 -12 -13 -11 -7 2 -10 -6
-8 -16 2 -10 -1 -24 -6 -32 -7 -11 -9 -10 -10 6 -1 11 -1 27 0 35 2 12 0 13
-7 1 -5 -7 -7 -23 -5 -35 4 -15 -1 -12 -16 12 -21 33 -33 41 -28 20 1 -7 -4
-12 -11 -10 -10 2 -10 -2 -2 -17 15 -29 12 -39 -5 -17 -8 11 -15 14 -15 7 0
-7 -4 -10 -8 -7 -5 3 -26 -14 -48 -36 -21 -23 -31 -36 -21 -29 9 7 17 10 17 6
0 -5 9 0 19 9 21 19 35 8 24 -21 -6 -17 -6 -17 14 0 14 12 23 15 28 7 3 -5 11
-8 16 -4 15 9 1 23 -20 19 -10 -2 -18 2 -18 9 0 7 14 12 32 12 32 0 37 -9 22
-33 -4 -6 -3 -14 1 -17 5 -3 14 6 21 21 l12 26 26 -24 26 -24 -6 22 c-7 29 12
41 28 19 11 -15 13 -15 19 -1 8 22 29 7 23 -16 -8 -31 8 -30 26 1 18 29 42 34
57 10 4 -7 5 -20 2 -29 -5 -14 -4 -14 12 -2 9 8 15 22 13 31 -2 9 1 17 8 17
10 0 11 -7 5 -23 -6 -14 -5 -26 0 -29 6 -4 10 -3 10 2 0 4 9 19 20 33 l19 25
11 -29 11 -29 15 21 c19 27 37 19 28 -11 -6 -20 -3 -19 24 6 30 29 48 24 35
-10 -6 -15 -5 -16 9 -5 11 8 15 23 12 40 -3 18 -2 23 5 13 7 -11 9 -11 14 0 3
8 5 5 4 -6 -2 -11 -6 -25 -10 -32 -4 -6 -3 -14 1 -17 5 -3 14 6 21 20 9 21 14
24 25 15 10 -8 16 -9 21 -1 10 15 25 2 22 -20 -2 -10 -9 -26 -17 -36 -14 -17
-14 -17 10 -1 14 9 32 34 40 54 l13 38 13 -30 c10 -23 13 -25 14 -10 0 17 2
17 10 5 7 -11 10 -11 10 -2 0 7 5 10 10 7 6 -3 13 1 16 9 3 9 10 13 15 10 10
-6 14 3 23 51 5 22 4 26 -4 15 -5 -8 -10 -25 -10 -38 0 -13 -4 -21 -8 -18 -10
6 -9 36 2 54 5 8 3 11 -6 10 -7 -2 -12 3 -10 10 1 8 -2 11 -8 7 -6 -3 -7 -12
-3 -18 4 -7 9 -20 10 -31 3 -15 1 -17 -12 -6 -8 6 -13 17 -12 22 1 6 -5 12
-14 13 -9 2 -16 -3 -16 -11 0 -7 4 -11 8 -8 4 2 10 0 13 -5 9 -13 -20 -21 -32
-9 -6 6 -8 18 -5 27 4 11 1 10 -10 -4 -9 -11 -17 -29 -17 -40 0 -16 -2 -17
-10 -5 -6 10 -4 23 7 40 15 23 15 24 0 11 -9 -7 -17 -10 -17 -5 -1 5 -12 -4
-25 -21 -28 -34 -34 -22 -8 15 17 24 28 59 15 45 -4 -4 -7 -12 -7 -18 -1 -7
-6 -11 -13 -9 -7 1 -11 -1 -11 -5 3 -20 -2 -34 -10 -28 -6 3 -8 14 -6 24 3 19
-16 23 -32 7 -4 -4 -3 -6 4 -4 6 2 11 -1 12 -7 0 -5 -5 -10 -12 -11 -27 -2
-29 -5 -18 -18 8 -9 8 -16 2 -20 -16 -10 -24 33 -9 52 12 15 11 16 -4 3 -10
-7 -18 -10 -18 -6 0 5 -9 0 -20 -10 -19 -17 -20 -17 -30 6 -8 20 -10 21 -9 4
2 -37 -1 -55 -9 -55 -5 0 -8 15 -7 34 2 25 -2 33 -13 32 -9 -2 -18 -8 -20 -14
-2 -7 -8 -9 -13 -6 -6 4 -6 11 1 19 8 9 8 15 0 20 -6 4 -9 1 -8 -7 2 -7 -4
-12 -12 -10 -11 3 -11 -1 3 -16 9 -10 14 -22 10 -25 -6 -7 -39 33 -36 44 1 3
-5 6 -13 6 -12 0 -12 -3 1 -17 8 -9 12 -20 9 -23 -4 -4 -13 1 -19 10 -12 15
-15 14 -34 -17 -11 -19 -21 -28 -21 -20 0 9 8 27 17 40 17 24 28 59 15 45 -4
-4 -7 -12 -7 -18 -1 -7 -6 -11 -13 -9 -7 1 -11 -1 -11 -5 3 -20 -2 -34 -11
-28 -5 3 -7 13 -4 23 3 9 -6 -1 -20 -23 -14 -22 -26 -33 -26 -25 0 9 6 25 14
36 12 17 13 21 1 21 -8 0 -13 -3 -13 -6 1 -3 -2 -19 -7 -34 -5 -21 -10 -25
-16 -16 -4 8 -3 19 3 26 6 8 8 16 4 20 -3 3 -6 1 -6 -6 0 -7 -4 -10 -10 -6 -5
3 -7 13 -4 23 5 14 4 14 -4 2 -7 -9 -7 -19 -2 -26 6 -6 7 -14 3 -17 -9 -10
-32 26 -25 38 8 12 12 35 6 35 -2 0 -5 -2 -5 -5z m276 -73 c1 -33 22 -40 34
-10 6 12 10 19 10 14 1 -5 9 -2 19 7 16 14 18 13 34 -26 11 -26 12 -35 4 -24
-7 9 -17 17 -21 17 -5 0 -5 -3 -2 -7 4 -3 2 -12 -5 -20 -9 -11 -14 -11 -28 2
-15 14 -19 14 -32 2 -13 -13 -16 -12 -28 6 l-13 21 -19 -24 c-17 -21 -19 -22
-16 -5 2 14 -3 20 -17 20 -14 0 -19 -6 -17 -20 3 -18 2 -18 -13 3 -9 12 -21
20 -27 16 -5 -3 -2 9 7 27 15 28 19 30 27 16 5 -10 7 -21 4 -25 -3 -5 1 -9 9
-9 8 0 12 4 9 9 -11 17 8 29 20 12 12 -16 14 -15 32 9 22 29 29 26 29 -11z
m-321 -18 c14 -2 39 26 33 37 -1 2 6 -5 15 -16 10 -11 18 -15 18 -10 0 6 5 2
11 -8 6 -9 15 -14 21 -11 7 4 8 2 4 -5 -6 -9 -11 -9 -22 0 -17 14 -48 -6 -37
-25 3 -6 -2 -3 -13 6 -16 14 -23 15 -33 5 -10 -9 -12 -9 -9 3 2 10 -4 15 -17
14 -16 -1 -21 5 -19 25 2 38 3 38 18 12 8 -14 21 -26 30 -27z m543 33 c-3 -7
1 -24 9 -38 l13 -24 7 34 7 34 19 -22 c10 -13 18 -28 18 -35 -1 -6 -7 0 -14
12 l-13 24 -12 -30 c-10 -25 -16 -28 -26 -19 -7 7 -11 15 -8 20 9 15 -10 6
-23 -10 -12 -17 -13 -17 -19 0 -7 17 -8 17 -20 0 -13 -17 -13 -17 -12 2 1 13
-3 19 -13 17 -8 -2 -12 0 -8 4 4 4 3 13 -3 21 -6 7 -8 13 -4 13 4 0 14 -8 21
-17 13 -17 14 -17 8 2 -5 17 -3 17 14 -4 l19 -24 18 26 c18 28 31 36 22 14z
m-388 -19 c5 -14 4 -30 -2 -40 -10 -15 -12 -15 -23 0 -8 12 -9 22 -1 39 13 29
16 29 26 1z m504 -24 c-4 -12 -8 -12 -19 3 -13 17 -14 17 -8 -2 5 -19 5 -19
-6 -1 -10 14 -10 20 1 27 17 10 39 -8 32 -27z m-726 2 c4 -4 1 -6 -7 -4 -9 2
-14 -3 -12 -12 3 -12 1 -12 -9 -3 -10 10 -17 9 -33 -5 -16 -13 -16 -11 2 10
23 25 43 30 59 14z"/>
<path d="M3014 4439 c-3 -6 -2 -15 3 -20 5 -5 9 -1 9 11 0 23 -2 24 -12 9z"/>
<path d="M3120 4439 c0 -5 -4 -8 -9 -4 -5 3 -13 1 -16 -5 -5 -8 -12 -7 -23 2
-15 12 -16 11 -3 -5 10 -12 17 -15 24 -8 7 7 17 5 31 -6 12 -10 16 -11 9 -4
-6 7 -9 20 -6 27 3 8 2 14 -1 14 -3 0 -6 -5 -6 -11z"/>
<path d="M3186 4431 c-15 -16 -15 -19 -1 -31 8 -7 16 -10 16 -6 1 3 2 9 3 14
1 4 5 12 9 19 13 20 -9 24 -27 4z m15 -4 c-6 -8 -7 -18 -3 -22 4 -5 1 -5 -6
-1 -10 6 -10 11 -1 22 6 8 14 14 16 14 3 0 0 -6 -6 -13z"/>
<path d="M2841 4426 c-7 -8 -8 -17 -3 -20 6 -3 15 1 21 8 7 8 8 17 3 20 -6 3
-15 -1 -21 -8z"/>
<path d="M3330 4425 c-7 -9 -11 -17 -9 -20 3 -2 10 5 17 15 14 24 10 26 -8 5z"/>
<path d="M2947 4426 c-3 -8 -2 -18 3 -21 13 -8 20 9 11 24 -6 10 -10 9 -14 -3z"/>
<path d="M3175 4511 c-3 -5 -1 -12 5 -16 6 -4 7 -12 3 -18 -4 -7 0 -6 10 2 20
16 22 22 5 19 -7 -2 -12 3 -10 10 2 14 -4 16 -13 3z"/>
<path d="M4824 4512 c3 -6 2 -13 -3 -16 -5 -4 -8 -20 -6 -36 5 -36 -2 -39 -15
-7 -7 18 -9 18 -9 4 -1 -10 -5 -16 -11 -12 -5 3 -7 12 -4 19 3 8 1 17 -5 21
-7 4 -8 -1 -4 -12 6 -16 5 -16 -10 -4 -9 7 -14 18 -10 25 3 6 2 7 -3 3 -5 -5
-9 -13 -9 -18 0 -5 -4 -8 -10 -6 -5 1 -9 5 -8 9 1 3 -5 12 -15 20 -15 12 -16
11 -3 -4 7 -10 10 -18 6 -18 -4 0 -2 -6 4 -14 8 -10 9 -16 1 -21 -5 -3 -10 -1
-10 6 0 7 -7 4 -16 -7 -13 -16 -15 -16 -10 -1 3 9 9 25 12 35 3 9 -1 7 -8 -6
-8 -12 -17 -20 -21 -16 -4 4 -1 14 6 23 11 14 10 15 -7 1 -18 -14 -19 -13 -12
5 6 16 5 17 -5 8 -9 -10 -10 -15 0 -27 7 -8 8 -17 3 -20 -11 -6 -27 22 -23 39
2 5 -1 6 -6 2 -4 -5 -9 -13 -9 -18 -3 -23 -6 -22 -19 6 -13 28 -14 29 -9 4 3
-16 1 -30 -7 -35 -9 -5 -10 -2 -6 10 4 10 3 15 -4 11 -5 -4 -7 -16 -4 -28 6
-21 6 -21 -9 -3 -14 18 -14 22 2 40 16 20 16 20 -2 6 -18 -14 -19 -13 -13 3 4
11 3 16 -3 12 -6 -3 -8 -21 -4 -38 4 -23 2 -29 -6 -21 -6 6 -12 20 -13 32 0
12 -3 19 -6 17 -2 -3 -10 0 -17 6 -8 7 -14 7 -19 -1 -4 -6 -3 -9 2 -8 4 2 8
-1 8 -7 0 -5 -4 -9 -9 -7 -4 1 -14 -2 -20 -8 -13 -10 -26 -4 -26 12 0 5 4 7 9
3 5 -3 12 -2 15 3 2 4 -6 8 -19 8 -16 0 -21 -4 -17 -15 5 -14 3 -14 -11 -2
-14 11 -15 17 -5 30 10 14 10 14 -2 3 -8 -7 -15 -17 -15 -23 0 -5 -4 -8 -10
-6 -5 1 -8 6 -7 12 2 5 0 7 -4 3 -4 -4 -14 -2 -23 5 -14 10 -14 10 -5 -3 8
-11 8 -21 -1 -37 -6 -13 -15 -20 -18 -17 -3 4 -2 14 3 23 5 11 5 23 -2 32 -8
12 -9 11 -5 -3 3 -9 -1 -24 -9 -35 -13 -17 -14 -16 -10 10 4 24 2 27 -9 17 -8
-6 -11 -19 -8 -28 6 -15 5 -15 -10 -3 -17 13 -16 15 0 35 13 15 14 17 2 8 -9
-6 -20 -8 -24 -4 -5 4 -5 2 -1 -5 3 -6 2 -14 -4 -18 -5 -3 -10 -16 -10 -28 0
-17 -2 -19 -9 -8 -6 9 -6 22 1 34 5 10 7 21 5 24 -3 2 -8 -5 -12 -16 -3 -12
-11 -19 -16 -15 -6 3 -5 12 3 22 7 10 8 14 4 10 -5 -4 -16 -2 -25 5 -14 10
-14 10 -3 -5 9 -11 10 -18 2 -23 -5 -3 -10 -16 -10 -27 0 -28 -13 -15 -16 17
-2 16 1 23 8 19 7 -4 8 -2 4 5 -12 19 -27 1 -20 -22 6 -19 5 -20 -9 -8 -9 7
-15 16 -13 20 3 4 0 13 -5 21 -8 12 -9 11 -7 -5 2 -11 -1 -20 -7 -20 -5 0 -16
-4 -23 -8 -9 -7 -11 -2 -8 18 3 15 2 25 -1 21 -3 -3 -13 0 -22 6 -13 10 -13 9
1 -7 12 -14 14 -25 8 -35 -9 -15 -11 -13 -14 12 0 6 -9 12 -19 14 -17 2 -17 1
-3 -15 9 -10 13 -21 9 -26 -5 -4 -2 -5 5 -1 7 4 12 2 12 -7 0 -7 14 -26 31
-43 28 -27 31 -28 40 -11 8 14 14 16 25 6 7 -6 12 -15 9 -19 -3 -5 -1 -11 3
-14 5 -3 14 6 21 20 9 21 14 24 25 15 10 -8 16 -9 21 -1 11 18 26 0 19 -23 -6
-20 -3 -19 24 7 l31 29 12 -26 c13 -29 33 -26 24 3 -8 24 9 34 25 15 7 -9 17
-12 24 -7 13 10 27 9 43 -1 6 -4 15 -2 18 4 5 7 15 3 30 -11 16 -15 25 -18 30
-10 5 8 14 5 30 -10 24 -23 26 -22 50 24 10 19 30 20 30 1 0 -5 4 -16 9 -24 7
-11 12 -8 23 13 11 21 17 25 28 16 9 -8 15 -8 20 0 11 18 26 0 19 -23 -6 -20
-4 -19 23 6 24 22 32 25 41 15 10 -12 11 -17 12 -35 1 -5 8 5 16 21 l16 28 32
-31 c35 -34 49 -32 40 4 -9 35 13 39 31 5 8 -16 18 -30 21 -30 3 0 3 4 0 9 -3
4 0 16 7 25 12 16 14 16 31 -3 l19 -21 11 21 c11 22 31 24 31 3 0 -6 6 -19 14
-28 10 -12 17 -14 27 -5 8 6 12 15 9 19 -3 4 1 13 9 19 10 8 17 6 31 -9 17
-19 41 -18 29 1 -3 5 -11 6 -17 2 -8 -4 -7 -1 1 9 7 9 22 15 33 13 13 -3 17 0
12 8 -5 9 -3 9 9 0 8 -7 17 -10 21 -7 8 8 3 -18 -6 -33 -4 -6 -3 -14 1 -17 5
-3 14 6 21 20 9 21 14 24 25 15 10 -8 16 -9 21 -1 11 18 26 0 19 -23 -6 -19
-5 -20 9 -9 9 7 14 21 12 31 -2 10 3 18 10 18 13 0 14 -14 2 -34 -4 -6 -3 -14
1 -17 5 -3 14 6 21 21 l12 26 23 -22 23 -21 18 20 c13 15 21 17 31 9 7 -6 13
-14 12 -17 -3 -27 3 -34 17 -22 8 7 12 16 9 21 -10 17 7 31 22 18 8 -6 14 -8
14 -4 0 5 8 1 18 -8 16 -15 19 -15 30 4 16 25 35 15 26 -14 -6 -20 -3 -19 24
6 17 16 32 30 35 30 9 4 37 -26 32 -33 -9 -14 23 -5 43 13 14 13 21 14 30 5 7
-7 12 -8 12 -3 0 4 9 0 20 -10 11 -10 17 -22 14 -26 -3 -5 -3 -9 1 -9 9 0 23
44 17 54 -3 5 -8 1 -12 -9 -6 -18 -7 -18 -12 1 -4 16 0 20 17 20 19 0 22 -4
19 -24 -5 -23 -3 -22 23 9 15 18 26 40 25 48 -3 13 -1 13 15 1 13 -10 15 -10
6 -1 -6 7 -9 21 -6 30 4 11 1 10 -10 -4 -15 -19 -16 -18 -13 17 2 21 0 36 -4
33 -5 -3 -7 -14 -5 -24 2 -10 -5 -31 -16 -47 -13 -20 -19 -24 -19 -12 0 9 5
20 10 23 6 3 10 12 9 18 0 9 -2 8 -6 -1 -2 -6 -9 -9 -15 -6 -5 3 -2 15 9 27
12 15 13 18 2 9 -9 -6 -18 -9 -22 -6 -7 7 -4 -18 5 -31 5 -9 -7 -55 -15 -55
-2 0 -5 12 -5 28 -2 58 -6 81 -13 76 -8 -4 -7 -11 6 -64 5 -19 4 -22 -4 -10
-8 11 -11 12 -11 2 0 -7 -5 -10 -10 -7 -7 5 -8 11 -1 19 7 8 6 17 -1 26 -8 12
-9 12 -4 -2 3 -10 1 -20 -4 -23 -10 -6 -11 -2 -14 34 0 11 -4 22 -8 26 -3 4
-5 -1 -4 -12 2 -10 -2 -24 -8 -32 -8 -12 -8 -13 2 -7 10 6 11 1 6 -21 -9 -36
-14 -42 -14 -15 0 11 -5 24 -10 27 -8 5 -7 12 2 23 11 13 11 14 -2 7 -8 -6
-19 -10 -25 -10 -5 -1 -8 -7 -6 -15 13 -51 12 -54 -7 -25 -14 22 -17 34 -9 44
12 14 20 47 9 36 -4 -4 -7 -12 -7 -18 -1 -7 -6 -11 -13 -10 -7 2 -11 0 -9 -5
1 -4 -2 -8 -8 -9 -6 -2 -10 6 -10 16 0 11 -3 23 -7 27 -4 3 -6 -2 -4 -12 4
-21 -27 -67 -38 -57 -3 4 2 16 11 27 17 20 17 20 -1 6 -18 -14 -19 -13 -13 3
4 11 3 16 -4 12 -6 -4 -8 -13 -5 -21 3 -7 1 -16 -4 -19 -6 -4 -10 0 -10 7 0 9
-3 9 -10 -2 -9 -15 -11 -13 -14 13 0 6 -10 12 -21 12 -14 0 -19 -7 -18 -21 1
-12 -4 -21 -12 -21 -14 0 -16 22 -3 43 4 6 1 11 -6 11 -8 0 -12 -12 -11 -34 1
-19 -2 -36 -7 -39 -8 -5 -10 5 -11 63 0 18 -4 30 -8 27 -4 -2 -6 -17 -3 -32 4
-25 3 -25 -10 -9 -13 17 -14 17 -21 0 -5 -10 -9 -21 -9 -25 -2 -17 -16 -19
-16 -2 0 11 5 25 10 30 7 7 7 11 -3 11 -7 0 -14 -12 -15 -26 -1 -14 -6 -29
-11 -34 -5 -5 -8 7 -6 30 1 28 -2 40 -11 40 -7 0 -10 -5 -6 -11 3 -6 8 -19 9
-30 3 -16 1 -17 -12 -6 -8 7 -13 16 -10 20 10 17 -13 19 -26 3 -8 -10 -9 -14
-2 -10 6 4 14 3 17 -2 9 -14 -20 -21 -33 -8 -8 8 -6 16 7 31 13 16 13 18 1 8
-9 -6 -19 -8 -23 -4 -4 4 -7 2 -6 -3 4 -18 -12 -55 -21 -49 -5 3 -4 14 2 25 6
12 8 23 6 26 -3 2 -8 -5 -12 -16 -3 -12 -11 -19 -16 -15 -6 3 -5 12 3 22 12
16 11 16 -6 2 -18 -14 -19 -13 -13 2 3 10 2 20 -2 22 -5 3 -7 -5 -6 -17 1 -12
3 -22 4 -22 8 0 7 -36 0 -41 -5 -3 -9 4 -9 15 0 11 -5 23 -10 26 -6 4 -8 10
-6 14 3 3 -11 7 -29 7 -18 0 -33 -3 -33 -6 2 -19 -4 -23 -13 -10 -9 13 -10 12
-5 -2 6 -20 -10 -35 -16 -15 -3 6 -4 24 -3 40 1 15 -1 25 -4 21 -3 -3 -6 -14
-6 -25 0 -10 -4 -18 -10 -16 -5 1 -9 6 -7 11 2 5 -4 4 -12 -3 -9 -7 -15 -16
-14 -19 2 -20 -3 -25 -12 -12 -6 10 -4 20 6 31 12 14 12 16 -1 16 -8 0 -12 -3
-10 -7 2 -4 -7 -18 -20 -30 -14 -13 -25 -19 -25 -13 0 6 7 16 15 23 9 7 13 15
10 18 -3 3 1 12 8 21 11 14 10 14 -5 3 -10 -8 -16 -17 -15 -20 1 -4 -2 -8 -8
-9 -5 -1 -9 6 -9 17 1 11 -2 17 -6 15 -7 -4 -6 -40 0 -40 7 0 5 -47 -2 -51 -4
-3 -8 -2 -9 3 -4 42 -6 54 -11 58 -3 3 -8 -1 -12 -10 -3 -9 -2 -13 4 -10 15 9
12 -4 -4 -20 -15 -16 -27 -10 -20 9 3 7 -1 18 -9 24 -11 9 -14 8 -14 -3 0 -8
4 -12 9 -9 4 3 8 1 8 -4 0 -6 -7 -12 -15 -16 -15 -5 -18 1 -18 36 0 10 -4 15
-8 12 -5 -3 -7 -9 -4 -14 3 -4 -2 -13 -10 -20 -13 -11 -15 -10 -12 6 1 11 6
24 10 31 4 6 2 15 -4 19 -7 4 -9 3 -5 -4z m347 -49 c11 -11 9 -46 -2 -41 -4 2
-16 -5 -27 -15 -14 -13 -22 -15 -27 -7 -5 8 -13 6 -26 -6 -10 -9 -19 -13 -20
-8 0 5 -5 0 -10 -11 l-9 -20 3 20 c1 11 -4 25 -13 32 -12 9 -19 8 -36 -8 -19
-18 -22 -18 -34 -4 -12 14 -15 14 -33 -2 -11 -10 -18 -13 -14 -8 3 6 -3 16
-13 23 -17 10 -22 8 -36 -13 l-17 -26 -22 21 c-20 19 -23 19 -35 5 -12 -14
-15 -14 -30 0 -15 14 -18 14 -30 0 -12 -14 -15 -14 -30 0 -13 12 -20 13 -25 5
-5 -8 -10 -9 -18 -1 -8 8 -18 4 -36 -12 -14 -12 -20 -15 -14 -7 10 13 8 18 -6
27 -15 10 -23 8 -40 -11 -12 -12 -19 -25 -16 -28 3 -2 -2 -5 -9 -5 -8 0 -14 5
-13 11 1 5 -12 10 -29 11 -17 0 -38 6 -47 13 -10 9 -17 10 -22 2 -3 -6 -12 -7
-18 -3 -19 12 -36 12 -43 1 -4 -5 -13 -3 -24 7 -15 14 -18 14 -30 0 -9 -11
-16 -12 -25 -5 -9 7 -16 6 -25 -5 -12 -14 -15 -14 -30 0 -13 11 -20 13 -25 5
-5 -8 -11 -8 -20 0 -9 7 -16 6 -25 -5 -12 -14 -15 -14 -30 0 -15 14 -18 14
-30 0 -12 -14 -15 -13 -37 6 -22 22 -33 56 -13 44 6 -4 7 -11 4 -17 -4 -7 -2
-8 5 -4 6 4 9 11 6 16 -3 5 0 12 6 16 8 5 10 1 7 -13 -3 -12 0 -20 7 -20 7 0
10 9 7 21 -4 19 -2 18 25 -7 31 -29 43 -27 43 7 1 19 3 19 23 -7 25 -29 37
-27 37 7 1 19 3 18 26 -9 13 -16 22 -22 19 -13 -8 20 22 19 34 -1 6 -9 12 -2
20 21 11 31 13 32 26 14 8 -10 12 -22 10 -27 -3 -4 0 -11 6 -15 7 -4 9 -3 6 3
-4 6 3 10 16 9 16 -1 21 4 19 18 -2 11 1 15 8 11 6 -4 9 -14 6 -22 -3 -8 -2
-11 3 -8 5 3 12 1 16 -4 3 -5 14 -8 25 -6 13 3 18 0 14 -7 -4 -7 -3 -8 4 -4 7
4 8 15 2 30 -12 31 0 42 14 13 7 -12 17 -22 23 -22 6 0 15 -4 19 -8 5 -4 17 2
27 15 11 13 17 16 14 7 -3 -9 1 -16 8 -16 7 0 11 6 8 13 -2 6 0 15 5 18 6 3
13 -2 16 -11 4 -9 1 -20 -6 -24 -8 -5 -6 -8 9 -7 11 1 19 7 16 14 -2 7 0 15 5
18 6 3 13 -1 16 -10 5 -13 9 -14 21 -4 8 7 15 9 15 4 0 -4 10 2 23 14 l24 22
18 -20 c10 -11 20 -18 23 -15 3 3 11 0 18 -6 9 -8 16 -5 24 12 10 17 14 19 21
8 13 -21 11 -32 -7 -25 -8 3 -12 2 -9 -3 9 -15 44 -9 38 6 -6 15 13 18 22 3 5
-8 11 -8 20 0 9 8 14 6 19 -6 6 -15 10 -14 35 10 29 28 29 28 36 6 6 -20 7
-20 20 -3 7 10 11 22 7 28 -3 5 1 4 10 -2 8 -7 18 -10 21 -6 4 3 7 2 7 -3 0
-6 7 -19 16 -30 8 -10 12 -13 9 -6 -9 16 31 61 51 58 8 -1 19 -7 25 -13z m354
9 c-3 -3 0 -11 6 -18 6 -8 9 -20 6 -27 -3 -9 6 -13 34 -13 21 0 36 3 33 8 -7
12 16 49 27 43 13 -9 11 -26 -2 -22 -6 1 -13 -9 -14 -22 -2 -22 -1 -23 12 -6
9 14 13 15 13 4 0 -12 2 -12 9 0 5 8 7 20 4 28 -10 26 7 13 23 -18 11 -23 19
-28 27 -20 7 7 7 18 -2 37 -11 24 -10 26 3 15 8 -7 16 -21 18 -32 4 -27 22
-25 28 3 l6 22 16 -22 c11 -17 17 -20 21 -10 3 7 5 3 4 -8 -1 -21 -12 -25 -33
-11 -7 4 -17 1 -23 -7 -13 -15 -28 -16 -51 -1 -23 15 -38 14 -51 -1 -10 -13
-14 -12 -29 1 -16 15 -19 14 -34 0 -9 -9 -16 -12 -16 -6 0 5 -9 8 -20 6 -11
-2 -22 1 -26 6 -4 6 -13 4 -24 -6 -15 -14 -18 -14 -30 0 -10 12 -16 13 -27 3
-21 -17 -40 -18 -54 -2 -9 11 -15 12 -26 2 -11 -9 -13 -8 -11 2 2 8 -5 14 -17
14 -12 0 -19 -6 -17 -14 3 -12 1 -12 -9 -3 -9 9 -16 9 -25 2 -8 -7 -14 -7 -19
1 -5 8 -11 7 -21 -1 -12 -10 -15 -10 -12 2 2 8 -3 13 -11 11 -11 -2 -12 0 -3
11 7 8 8 18 4 23 -4 5 3 0 15 -10 22 -18 23 -18 31 3 7 20 10 21 21 7 10 -12
18 -13 32 -6 14 8 21 6 29 -11 9 -16 14 -18 26 -8 8 6 14 8 14 3 0 -4 6 -2 13
5 6 6 12 16 12 22 0 20 21 11 33 -15 12 -25 15 -26 30 -12 10 8 22 16 27 18 6
2 9 10 8 19 -1 9 4 16 12 16 8 0 13 -3 10 -5z m-1125 -21 c7 -15 7 -19 -5 -17
-20 3 -28 13 -20 25 9 15 13 14 25 -8z m78 -14 c2 -9 -3 -15 -12 -13 -21 3
-29 13 -21 26 9 15 29 7 33 -13z m1110 -5 c2 -6 -6 -10 -17 -9 -12 1 -21 7
-21 13 0 15 33 11 38 -4z m295 4 c3 -8 -3 -22 -13 -31 -18 -17 -19 -17 -15 4
4 21 13 41 20 41 1 0 5 -6 8 -14z"/>
<path d="M5132 4465 c4 -6 3 -17 -3 -25 -7 -13 -9 -13 -9 0 0 13 -1 13 -10 0
-5 -9 -5 -19 2 -27 14 -18 39 2 32 25 -5 14 -3 14 10 -2 14 -18 15 -18 13 2 0
12 -3 19 -6 17 -2 -3 -11 1 -19 8 -9 6 -13 7 -10 2z m8 -41 c0 -8 -19 -13 -24
-6 -3 5 1 9 9 9 8 0 15 -2 15 -3z"/>
<path d="M4341 4439 c-1 -9 7 -23 17 -30 15 -12 16 -12 6 1 -6 8 -14 22 -17
30 -5 13 -6 12 -6 -1z"/>
<path d="M4731 4438 c-1 -11 -8 -16 -21 -13 -11 2 -22 -1 -26 -6 -3 -6 -12 -5
-22 3 -15 12 -16 11 -3 -5 10 -12 17 -14 26 -7 9 7 16 6 25 -5 12 -14 15 -14
30 0 15 14 18 14 30 0 10 -12 16 -13 26 -4 17 14 9 28 -14 25 -9 -2 -20 4 -24
13 -5 13 -7 12 -8 -4 l-1 -20 -9 20 c-7 16 -9 17 -9 3z m9 -24 c0 -8 -19 -13
-24 -6 -3 5 1 9 9 9 8 0 15 -2 15 -3z m60 0 c0 -8 -19 -13 -24 -6 -3 5 1 9 9
9 8 0 15 -2 15 -3z"/>
<path d="M5037 4436 c-3 -8 4 -21 18 -30 29 -19 39 -9 19 19 -8 10 -14 13 -14
7 0 -7 -4 -12 -10 -12 -5 0 -7 7 -4 15 4 8 4 15 1 15 -3 0 -7 -6 -10 -14z"/>
<path d="M4112 4430 c2 -10 -4 -15 -20 -14 -18 1 -20 -1 -11 -13 10 -11 14
-11 29 2 15 14 18 14 30 0 11 -14 15 -14 30 0 13 12 19 12 29 2 11 -10 11 -8
0 10 -13 22 -13 22 -27 2 -14 -20 -14 -20 -39 3 -16 15 -24 18 -21 8z"/>
<path d="M4237 4426 c-3 -8 0 -20 8 -26 18 -15 26 1 10 23 -10 15 -14 15 -18
3z"/>
<path d="M4971 4426 c-9 -10 -8 -16 3 -25 10 -9 16 -8 25 3 9 10 8 16 -3 25
-10 9 -16 8 -25 -3z m23 -17 c-3 -5 -10 -7 -15 -3 -5 3 -7 10 -3 15 3 5 10 7
15 3 5 -3 7 -10 3 -15z"/>
<path d="M4290 4421 c0 -6 4 -13 10 -16 6 -3 7 1 4 9 -7 18 -14 21 -14 7z"/>
<path d="M4502 4426 c4 -5 3 -15 -3 -22 -7 -9 -6 -12 8 -9 10 1 23 -1 29 -6 7
-6 18 -1 30 13 11 14 13 18 3 11 -12 -10 -18 -10 -27 -1 -7 7 -12 8 -12 4 0
-5 -8 -2 -17 5 -10 7 -15 9 -11 5z"/>
<path d="M4416 4408 c3 -5 10 -6 15 -3 13 9 11 12 -6 12 -8 0 -12 -4 -9 -9z"/>
<path d="M4834 4402 c23 -26 22 -26 30 -6 3 9 2 12 -5 9 -5 -4 -18 -1 -27 6
-13 11 -12 8 2 -9z"/>
<path d="M4910 4416 c0 -2 7 -7 16 -10 8 -3 12 -2 9 4 -6 10 -25 14 -25 6z"/>
<path d="M5405 4430 c-10 -11 -23 -17 -29 -13 -6 4 -5 0 2 -9 13 -17 28 -18
50 -4 9 5 10 11 3 20 -6 7 -8 16 -4 19 3 4 4 7 1 7 -3 0 -13 -9 -23 -20z m13
-16 c-1 -5 -9 -9 -16 -10 -10 -2 -11 1 -1 12 12 14 24 13 17 -2z"/>
<path d="M5510 4435 c-7 -8 -16 -13 -20 -10 -4 3 -13 -2 -19 -9 -7 -8 -8 -17
-3 -20 6 -3 15 1 22 9 9 10 17 12 24 6 9 -7 12 -3 12 14 0 29 0 29 -16 10z"/>
<path d="M5261 4426 c-8 -9 -8 -16 -2 -20 5 -4 12 -2 16 4 4 6 10 8 15 5 5 -3
12 0 16 7 4 7 4 10 -1 6 -4 -4 -14 -3 -20 2 -9 7 -16 6 -24 -4z"/>
<path d="M5760 4421 c0 -6 4 -13 10 -16 6 -3 7 1 4 9 -7 18 -14 21 -14 7z"/>
<path d="M5706 4402 c-3 -5 1 -9 9 -9 8 0 12 4 9 9 -3 4 -7 8 -9 8 -2 0 -6 -4
-9 -8z"/>
<path d="M4894 4506 c1 -8 5 -18 8 -22 4 -3 5 1 4 10 -1 8 -5 18 -8 22 -4 3
-5 -1 -4 -10z"/>
<path d="M2785 4501 c-3 -5 -2 -12 3 -15 5 -3 9 1 9 9 0 17 -3 19 -12 6z"/>
<path d="M3534 4493 c2 -10 1 -22 -3 -28 -8 -15 -11 -38 -3 -30 4 4 7 11 7 16
0 5 5 9 10 8 6 -1 9 -6 7 -12 -2 -7 0 -8 5 -4 4 5 8 12 8 15 0 4 4 12 8 19 4
6 3 15 -3 18 -6 4 -9 2 -8 -3 2 -6 -1 -10 -7 -11 -5 -1 -10 3 -10 8 0 5 -3 12
-7 16 -3 4 -5 -1 -4 -12z"/>
<path d="M5530 4506 c0 -2 8 -10 18 -17 15 -13 16 -12 3 4 -13 16 -21 21 -21
13z"/>
<path d="M5942 4498 c2 -7 -2 -12 -7 -11 -6 1 -12 -8 -12 -19 -1 -11 -1 -19 0
-17 1 2 10 14 20 26 12 14 15 23 7 28 -6 4 -9 1 -8 -7z"/>
<path d="M5160 4385 c5 -6 8 -14 5 -17 -3 -3 1 -11 9 -17 10 -8 16 -9 21 -1 3
5 1 10 -6 10 -7 0 -4 7 7 15 21 16 21 16 -18 19 -21 2 -25 0 -18 -9z"/>
<path d="M8385 3831 c-3 -5 -2 -12 3 -15 5 -3 9 1 9 9 0 17 -3 19 -12 6z"/>
<path d="M713 3948 c8 -24 -4 -30 -20 -10 -13 15 -13 15 -4 -5 7 -14 8 -24 1
-28 -5 -3 -10 -1 -10 6 0 7 -7 4 -15 -7 -11 -15 -15 -16 -15 -4 -1 8 -8 2 -15
-15 -12 -26 -14 -27 -15 -8 0 12 -4 24 -9 27 -4 3 -6 -7 -5 -22 l4 -27 -11 28
c-8 20 -8 31 1 41 8 10 8 16 0 21 -6 4 -10 3 -9 -2 8 -36 -48 -66 -63 -33 -5
12 -7 12 -7 -3 -1 -10 -5 -16 -11 -12 -5 3 -7 12 -4 19 3 8 1 16 -4 20 -5 3
-7 -5 -6 -17 1 -12 3 -22 4 -22 1 0 3 -12 4 -27 2 -48 17 -53 151 -53 121 0
123 0 112 20 -6 11 -12 23 -13 28 -1 4 -3 10 -4 15 -2 4 -3 19 -4 34 0 15 -5
27 -10 27 -5 0 -13 5 -18 13 -8 10 -9 9 -5 -4z m24 -38 c-4 -16 -2 -32 3 -35
6 -4 8 -10 5 -15 -3 -5 -1 -11 5 -15 18 -11 11 -21 -15 -21 -26 0 -33 10 -15
21 6 3 10 1 10 -6 0 -7 2 -10 5 -7 3 3 1 16 -4 29 -8 20 -10 21 -10 5 -1 -11
-4 -17 -7 -13 -4 3 -1 20 4 37 7 18 7 28 2 25 -6 -4 -10 -12 -10 -20 0 -9 -8
-12 -20 -10 -12 2 -18 0 -15 -6 4 -5 1 -8 -7 -7 -8 2 -12 -6 -11 -22 2 -25 0
-26 -62 -25 -35 0 -67 4 -71 8 -13 13 -14 46 -2 53 8 5 9 2 5 -9 -3 -9 -2 -19
4 -22 5 -4 6 -11 3 -17 -4 -6 -2 -8 4 -4 6 3 9 19 6 34 -3 23 -3 24 7 9 6 -10
8 -25 5 -33 -3 -8 -3 -14 0 -14 3 0 10 14 16 31 l11 31 13 -31 c13 -32 29 -45
17 -14 -4 11 -3 14 6 9 8 -5 14 -1 18 13 3 11 9 19 13 16 5 -3 11 -1 15 5 4 6
10 8 14 5 5 -2 19 7 31 20 30 32 34 31 27 -5z m-35 -78 c-4 -11 -6 -11 -13 0
-7 11 -9 10 -9 -1 0 -20 -10 -8 -15 18 -2 12 0 19 5 16 5 -3 12 0 16 7 9 15
24 -21 16 -40z"/>
<path d="M577 3847 c-3 -8 1 -14 8 -14 7 0 11 6 8 14 -3 7 -6 13 -8 13 -2 0
-5 -6 -8 -13z"/>
<path d="M635 3849 c-4 -6 -5 -12 -2 -15 2 -3 7 2 10 11 7 17 1 20 -8 4z"/>
<path d="M676 3852 c-3 -5 1 -9 9 -9 8 0 12 4 9 9 -3 4 -7 8 -9 8 -2 0 -6 -4
-9 -8z"/>
<path d="M8637 3965 c-4 -8 -3 -16 1 -19 4 -3 9 4 9 15 2 23 -3 25 -10 4z"/>
<path d="M303 4640 c0 -36 2 -50 4 -32 2 17 2 47 0 65 -2 17 -4 3 -4 -33z"/>
<path d="M8722 4400 c0 -19 2 -27 5 -17 2 9 2 25 0 35 -3 9 -5 1 -5 -18z"/>
<path d="M312 4380 c0 -14 2 -19 5 -12 2 6 2 18 0 25 -3 6 -5 1 -5 -13z"/>
<path d="M8710 4298 c-3 -26 -1 -43 3 -39 5 5 7 26 5 47 l-3 39 -5 -47z"/>
<path d="M322 4280 c0 -19 2 -27 5 -17 2 9 2 25 0 35 -3 9 -5 1 -5 -18z"/>
<path d="M599 4133 c-13 -16 -12 -17 4 -4 9 7 17 15 17 17 0 8 -8 3 -21 -13z"/>
<path d="M8534 4136 c1 -8 5 -18 8 -22 4 -3 5 1 4 10 -1 8 -5 18 -8 22 -4 3
-5 -1 -4 -10z"/>
<path d="M8614 4136 c1 -8 5 -18 8 -22 4 -3 5 1 4 10 -1 8 -5 18 -8 22 -4 3
-5 -1 -4 -10z"/>
<path d="M466 4131 c-3 -5 2 -15 12 -22 15 -12 16 -12 5 2 -7 9 -10 19 -6 22
3 4 4 7 0 7 -3 0 -8 -4 -11 -9z"/>
<path d="M529 4138 c-6 -20 -6 -39 0 -42 4 -3 7 6 7 20 0 20 -4 32 -7 22z"/>
<path d="M621 4126 c-9 -11 -9 -16 1 -22 7 -4 10 -4 6 1 -4 4 -3 14 3 22 6 7
9 13 6 13 -2 0 -10 -6 -16 -14z"/>
<path d="M734 4126 c1 -8 5 -18 8 -22 4 -3 5 1 4 10 -1 8 -5 18 -8 22 -4 3 -5
-1 -4 -10z"/>
<path d="M8604 4101 c6 -10 -18 -34 -26 -26 -2 3 -5 -2 -5 -10 0 -12 6 -10 23
6 20 19 24 39 8 39 -3 0 -3 -4 0 -9z"/>
<path d="M369 4083 c-13 -16 -12 -17 4 -4 9 7 17 15 17 17 0 8 -8 3 -21 -13z"/>
<path d="M500 4075 c5 -7 6 -16 2 -21 -4 -5 -3 -5 2 -1 15 12 15 34 0 34 -9 0
-11 -4 -4 -12z"/>
<path d="M620 4086 c0 -2 8 -10 18 -17 15 -13 16 -12 3 4 -13 16 -21 21 -21
13z"/>
<path d="M389 4075 c-1 -3 -2 -8 -3 -12 -1 -5 -5 -15 -10 -23 -7 -12 -6 -13 4
-3 13 12 23 43 14 43 -2 0 -5 -2 -5 -5z"/>
<path d="M685 4061 c-3 -5 -2 -12 3 -15 5 -3 9 1 9 9 0 17 -3 19 -12 6z"/>
<path d="M427 3786 c-3 -8 -2 -18 4 -21 5 -4 7 -17 5 -30 -3 -14 0 -27 5 -30
5 -4 10 2 11 12 2 35 3 38 13 40 6 0 9 -4 7 -9 -1 -6 2 -15 7 -22 6 -7 6 -17
1 -26 -13 -20 -12 -30 2 -27 6 1 17 -9 24 -21 l12 -24 15 23 c9 12 14 27 10
32 -3 5 -9 3 -14 -4 -4 -7 -5 -17 -2 -23 3 -5 1 -6 -5 -2 -9 5 -8 15 3 36 8
16 11 31 6 34 -9 6 -25 -31 -21 -49 1 -5 -2 -6 -6 -2 -11 11 -14 38 -3 31 5
-3 9 2 9 10 0 9 -5 15 -11 14 -6 -2 -12 6 -13 18 -2 11 3 21 10 21 7 0 10 -6
7 -13 -2 -6 1 -15 7 -19 7 -4 10 -1 8 8 -2 9 1 15 7 14 5 -1 8 -8 7 -16 -2 -7
1 -10 8 -6 6 4 9 13 7 19 -3 7 1 13 8 13 7 0 11 -6 8 -13 -2 -6 1 -15 7 -19 7
-4 10 -1 8 6 -1 8 2 14 7 14 6 0 9 -6 7 -13 -2 -8 1 -11 8 -7 6 4 9 13 7 19
-3 7 1 13 8 13 7 0 11 -6 8 -13 -2 -6 1 -15 7 -19 7 -4 10 -1 8 6 -1 8 2 14 7
14 6 0 9 -6 7 -13 -2 -8 1 -11 8 -7 6 4 9 13 7 19 -3 7 1 13 8 13 7 0 11 -6 8
-13 -2 -6 1 -15 8 -20 9 -5 10 -2 6 9 -3 9 -2 19 4 22 5 4 9 3 8 -2 -4 -24 4
-34 11 -13 l8 25 1 -25 c1 -19 3 -22 10 -10 6 8 7 19 3 25 -3 5 1 4 10 -2 8
-7 17 -11 20 -8 2 3 5 -1 6 -7 0 -7 3 -26 6 -43 3 -16 3 -24 0 -17 -3 6 -10 9
-15 6 -6 -3 -5 -11 2 -20 10 -12 13 -12 24 2 11 16 3 58 -17 89 -4 7 -68 10
-168 10 -127 0 -163 2 -169 13 -7 12 -9 11 -14 -2z"/>
<path d="M8587 3776 c-4 -9 -14 -13 -27 -11 -11 2 -18 0 -15 -5 5 -7 -13 -58
-32 -91 -2 -3 6 -18 18 -33 l21 -26 19 24 c16 20 18 29 8 44 -9 15 -7 26 15
61 15 24 25 45 22 49 -3 3 -6 -1 -6 -9 0 -11 -2 -12 -9 -1 -7 11 -9 11 -14 -2z
m-3 -36 c-9 -16 -19 -32 -25 -35 -5 -4 -2 -16 7 -30 11 -18 12 -25 3 -31 -7
-4 -9 -3 -6 3 4 6 0 19 -8 29 -13 18 -14 17 -10 -14 2 -18 0 -30 -5 -27 -5 3
-6 13 -3 22 5 11 3 14 -6 8 -10 -6 -11 -3 -2 13 6 12 15 24 21 27 5 3 7 13 4
23 -5 15 -4 15 6 2 10 -13 11 -11 7 8 -3 12 -1 20 3 17 5 -3 11 -1 15 5 14 22
13 8 -1 -20z"/>
<path d="M8367 3742 c-8 -17 -7 -26 2 -35 11 -10 12 -7 6 13 -5 20 -4 22 5 10
10 -13 11 -12 7 6 -2 12 1 21 8 21 14 0 4 -39 -16 -63 -5 -7 -11 -20 -13 -30
-2 -11 -5 -23 -6 -29 -1 -5 -2 -16 -1 -24 1 -11 4 -11 16 -1 10 9 12 16 5 25
-6 7 -5 18 4 31 7 10 19 37 26 58 l13 39 14 -24 c13 -21 14 -22 10 -3 -3 12 1
21 8 21 16 0 4 -36 -27 -79 -18 -27 -19 -31 -5 -45 13 -13 18 -10 44 29 16 23
36 57 44 73 l15 30 -74 0 c-68 0 -75 -2 -85 -23z m133 -17 c0 -5 -5 -3 -11 5
-9 12 -10 11 -6 -8 3 -12 1 -20 -4 -16 -5 3 -10 0 -10 -5 -1 -6 -2 -17 -3 -23
-1 -7 -8 -12 -15 -10 -8 2 -11 -3 -8 -11 3 -8 -1 -14 -9 -14 -12 0 -12 4 1 21
9 12 23 38 32 59 11 26 19 34 25 25 4 -7 8 -17 8 -23z"/>
<path d="M747 3737 c-3 -9 -14 -14 -26 -12 -20 4 -37 -20 -22 -30 5 -3 12 2
15 11 4 9 9 14 13 11 3 -4 12 -2 19 4 8 7 14 7 19 -1 4 -6 1 -9 -7 -8 -9 2
-13 -9 -12 -37 1 -22 -1 -34 -3 -27 -3 6 -8 10 -13 7 -10 -6 -8 15 3 32 4 6 3
14 -3 18 -13 8 -25 -44 -12 -57 6 -6 8 -18 5 -27 -2 -9 7 -3 22 13 18 20 23
32 16 39 -8 8 -6 16 4 27 12 14 13 19 2 35 -12 16 -14 16 -20 2z"/>
<path d="M549 3738 c-7 -32 -7 -48 3 -54 8 -5 9 -2 5 10 -4 10 -3 15 3 11 6
-3 10 1 10 9 0 12 -18 34 -21 24z"/>
<path d="M609 3740 c-5 -32 -10 -45 -24 -66 -9 -13 -13 -30 -9 -37 5 -9 4 -9
-5 -1 -10 9 -8 19 8 44 11 19 18 37 15 42 -3 5 -16 -11 -28 -34 -14 -26 -20
-47 -15 -54 5 -6 7 -13 4 -16 -3 -3 1 -11 10 -18 8 -7 15 -9 16 -4 1 5 2 21 3
35 2 15 13 41 26 58 17 24 20 35 11 44 -6 6 -11 9 -12 7z"/>
<path d="M665 3730 c-4 -6 -10 -8 -14 -6 -4 3 -15 -8 -24 -24 -10 -17 -13 -31
-8 -35 5 -3 8 -14 6 -24 -2 -11 4 -26 14 -35 16 -15 19 -15 34 1 8 10 16 23
18 28 1 6 4 16 6 23 3 6 2 20 -3 30 -4 9 -6 22 -5 29 2 16 -16 26 -24 13z m10
-10 c-3 -5 -1 -19 5 -30 8 -15 7 -25 -5 -43 -8 -13 -13 -26 -10 -29 3 -2 -2
-5 -10 -5 -8 0 -12 4 -9 8 2 4 0 10 -6 14 -7 4 -7 12 0 25 15 27 12 34 -7 19
-15 -13 -15 -12 -2 8 l14 23 13 -26 c8 -14 16 -24 19 -21 2 3 0 15 -7 26 -10
19 -7 41 6 41 3 0 2 -4 -1 -10z"/>
<path d="M646 3655 c-3 -8 -1 -17 3 -20 5 -3 11 2 15 10 3 8 1 17 -3 20 -5 3
-11 -2 -15 -10z"/>
<path d="M8420 3728 c0 -9 5 -20 10 -23 13 -8 13 5 0 25 -8 13 -10 13 -10 -2z"/>
<path d="M821 3660 c0 -8 4 -22 9 -30 12 -18 12 -2 0 25 -6 13 -9 15 -9 5z"/>
</g>
</svg>
